<svg xmlns="http://www.w3.org/2000/svg" xmlns:xlink="http://www.w3.org/1999/xlink" width="1425" zoomAndPan="magnify" viewBox="0 0 1068.75 281.999989" height="376" preserveAspectRatio="xMidYMid meet" version="1.0"><defs><filter x="0%" y="0%" width="100%" height="100%" id="f5703d7101"><feColorMatrix values="0 0 0 0 1 0 0 0 0 1 0 0 0 0 1 0 0 0 1 0" color-interpolation-filters="sRGB"/></filter><g/><mask id="8a8d52df27"><g filter="url(#f5703d7101)"><rect x="-106.875" width="1282.5" fill="#000000" y="-28.199999" height="338.399986" fill-opacity="0.63"/></g></mask><clipPath id="41895515a0"><path d="M 101 14 L 498.703125 14 L 498.703125 18 L 101 18 Z M 101 14 " clip-rule="nonzero"/></clipPath><clipPath id="716b0312c5"><path d="M 45 109 L 136 109 L 136 112.152344 L 45 112.152344 Z M 45 109 " clip-rule="nonzero"/></clipPath><clipPath id="1a04abd147"><path d="M 161 0.625 L 252 0.625 L 252 4 L 161 4 Z M 161 0.625 " clip-rule="nonzero"/></clipPath><clipPath id="03b1f92f33"><path d="M 0.703125 96 L 347 96 L 347 100 L 0.703125 100 Z M 0.703125 96 " clip-rule="nonzero"/></clipPath><clipPath id="5c49459064"><rect x="0" width="500" y="0" height="113"/></clipPath><clipPath id="380e3e8260"><path d="M 570 60 L 1068.5 60 L 1068.5 173 L 570 173 Z M 570 60 " clip-rule="nonzero"/></clipPath><mask id="2fa3d961a2"><g filter="url(#f5703d7101)"><rect x="-106.875" width="1282.5" fill="#000000" y="-28.199999" height="338.399986" fill-opacity="0.63"/></g></mask><clipPath id="dfb2545723"><path d="M 101 14 L 498.386719 14 L 498.386719 18 L 101 18 Z M 101 14 " clip-rule="nonzero"/></clipPath><clipPath id="1f80265045"><path d="M 45 109 L 136 109 L 136 112.152344 L 45 112.152344 Z M 45 109 " clip-rule="nonzero"/></clipPath><clipPath id="ef618862fd"><path d="M 161 0.625 L 251 0.625 L 251 4 L 161 4 Z M 161 0.625 " clip-rule="nonzero"/></clipPath><clipPath id="c64381336c"><path d="M 0.386719 96 L 347 96 L 347 100 L 0.386719 100 Z M 0.386719 96 " clip-rule="nonzero"/></clipPath><clipPath id="1fd59b0bcb"><rect x="0" width="499" y="0" height="113"/></clipPath></defs><g mask="url(#8a8d52df27)"><g transform="matrix(1, 0, 0, 1, 0, 60)"><g clip-path="url(#5c49459064)"><path fill="#d011d8" d="M 32.890625 71.335938 C 44.359375 71.675781 55.824219 71.824219 67.292969 72.070312 L 101.691406 72.492188 C 124.625 72.769531 147.558594 72.808594 170.488281 72.847656 C 193.421875 72.8125 216.355469 72.773438 239.289062 72.5 L 273.6875 72.078125 C 285.15625 71.824219 296.621094 71.679688 308.085938 71.335938 C 296.621094 70.992188 285.15625 70.847656 273.6875 70.59375 L 239.289062 70.171875 C 216.355469 69.898438 193.421875 69.859375 170.488281 69.824219 C 147.558594 69.863281 124.625 69.902344 101.691406 70.179688 L 67.292969 70.601562 C 55.824219 70.847656 44.359375 70.996094 32.890625 71.335938 Z M 32.890625 71.335938 " fill-opacity="1" fill-rule="nonzero"/><path fill="#d011d8" d="M 69.105469 30.175781 C 82.644531 30.515625 96.183594 30.664062 109.722656 30.914062 L 150.339844 31.335938 C 177.421875 31.609375 204.5 31.648438 231.578125 31.6875 C 258.660156 31.652344 285.738281 31.613281 312.816406 31.339844 L 353.433594 30.917969 C 366.972656 30.667969 380.515625 30.519531 394.054688 30.179688 C 380.515625 29.835938 366.972656 29.6875 353.433594 29.4375 L 312.816406 29.015625 C 285.738281 28.742188 258.660156 28.703125 231.578125 28.667969 C 204.5 28.707031 177.421875 28.746094 150.339844 29.023438 L 109.722656 29.441406 C 96.183594 29.691406 82.644531 29.835938 69.105469 30.175781 Z M 69.105469 30.175781 " fill-opacity="1" fill-rule="nonzero"/><g clip-path="url(#41895515a0)"><path fill="#d011d8" d="M 101.648438 16.238281 C 118.191406 16.578125 134.734375 16.722656 151.28125 16.972656 L 200.914062 17.394531 C 217.460938 17.574219 234.003906 17.542969 250.546875 17.609375 L 300.179688 17.746094 L 349.8125 17.613281 C 366.359375 17.539062 382.902344 17.582031 399.449219 17.398438 L 449.082031 16.976562 C 465.625 16.726562 482.167969 16.578125 498.714844 16.238281 C 482.167969 15.894531 465.625 15.75 449.082031 15.496094 L 399.449219 15.074219 C 382.902344 14.890625 366.359375 14.933594 349.8125 14.863281 L 300.179688 14.730469 L 250.546875 14.867188 C 234.003906 14.933594 217.460938 14.898438 200.914062 15.082031 L 151.28125 15.503906 C 134.734375 15.75 118.191406 15.898438 101.648438 16.238281 Z M 101.648438 16.238281 " fill-opacity="1" fill-rule="nonzero"/></g><path fill="#d011d8" d="M 50.726562 44.117188 C 71.601562 44.699219 92.472656 45.09375 113.34375 45.292969 C 123.78125 45.429688 134.21875 45.460938 144.652344 45.542969 L 175.960938 45.625 L 207.273438 45.546875 C 217.707031 45.460938 228.144531 45.4375 238.582031 45.296875 C 259.453125 45.097656 280.324219 44.703125 301.199219 44.117188 C 280.324219 43.527344 259.453125 43.132812 238.582031 42.9375 C 228.144531 42.796875 217.707031 42.769531 207.273438 42.683594 L 175.960938 42.605469 L 144.652344 42.6875 C 134.21875 42.769531 123.78125 42.800781 113.34375 42.941406 C 92.472656 43.140625 71.601562 43.535156 50.726562 44.117188 Z M 50.726562 44.117188 " fill-opacity="1" fill-rule="nonzero"/><path fill="#d011d8" d="M 45.90625 84.46875 C 58.449219 85.097656 70.988281 85.421875 83.53125 85.644531 C 89.800781 85.785156 96.074219 85.816406 102.34375 85.898438 L 121.152344 85.980469 L 139.964844 85.902344 C 146.234375 85.816406 152.507812 85.789062 158.777344 85.648438 C 171.316406 85.425781 183.855469 85.097656 196.398438 84.46875 C 183.855469 83.839844 171.316406 83.511719 158.777344 83.289062 C 152.503906 83.148438 146.234375 83.121094 139.964844 83.039062 L 121.152344 82.957031 L 102.34375 83.042969 C 96.070312 83.125 89.800781 83.15625 83.53125 83.292969 C 70.988281 83.519531 58.449219 83.84375 45.90625 84.46875 Z M 45.90625 84.46875 " fill-opacity="1" fill-rule="nonzero"/><g clip-path="url(#716b0312c5)"><path fill="#d011d8" d="M 45.90625 110.742188 C 53.359375 111.367188 60.808594 111.695312 68.261719 111.917969 C 71.988281 112.054688 75.710938 112.085938 79.4375 112.167969 L 90.613281 112.253906 L 101.789062 112.171875 C 105.515625 112.085938 109.238281 112.0625 112.964844 111.921875 C 120.417969 111.699219 127.867188 111.371094 135.316406 110.742188 C 127.867188 110.113281 120.417969 109.785156 112.964844 109.5625 C 109.238281 109.421875 105.511719 109.394531 101.789062 109.308594 L 90.613281 109.230469 L 79.4375 109.316406 C 75.710938 109.398438 71.984375 109.429688 68.261719 109.566406 C 60.808594 109.789062 53.359375 110.117188 45.90625 110.742188 Z M 45.90625 110.742188 " fill-opacity="1" fill-rule="nonzero"/></g><g clip-path="url(#1a04abd147)"><path fill="#d011d8" d="M 161.644531 2.296875 C 169.097656 2.921875 176.546875 3.25 183.996094 3.472656 C 187.722656 3.609375 191.449219 3.640625 195.171875 3.722656 L 206.351562 3.808594 L 217.527344 3.726562 C 221.25 3.644531 224.976562 3.617188 228.703125 3.476562 C 236.152344 3.253906 243.601562 2.925781 251.054688 2.296875 C 243.601562 1.667969 236.152344 1.339844 228.703125 1.117188 C 224.976562 0.976562 221.25 0.949219 217.527344 0.863281 L 206.351562 0.785156 L 195.171875 0.867188 C 191.449219 0.949219 187.722656 0.980469 183.996094 1.121094 C 176.546875 1.34375 169.09375 1.671875 161.644531 2.296875 Z M 161.644531 2.296875 " fill-opacity="1" fill-rule="nonzero"/></g><g clip-path="url(#03b1f92f33)"><path fill="#d011d8" d="M 0.703125 97.605469 C 15.109375 97.945312 29.519531 98.09375 43.925781 98.34375 L 87.148438 98.765625 C 115.964844 99.039062 144.78125 99.078125 173.59375 99.117188 C 202.410156 99.082031 231.226562 99.042969 260.042969 98.769531 L 303.265625 98.347656 C 317.671875 98.097656 332.082031 97.949219 346.488281 97.609375 C 332.082031 97.265625 317.671875 97.117188 303.265625 96.867188 L 260.042969 96.445312 C 231.226562 96.171875 202.410156 96.128906 173.59375 96.097656 C 144.78125 96.136719 115.964844 96.175781 87.148438 96.449219 L 43.925781 96.871094 C 29.519531 97.117188 15.109375 97.265625 0.703125 97.605469 Z M 0.703125 97.605469 " fill-opacity="1" fill-rule="nonzero"/></g><path fill="#d011d8" d="M 75.949219 58.058594 C 92.617188 58.640625 109.285156 59.035156 125.957031 59.230469 C 134.289062 59.371094 142.625 59.402344 150.960938 59.484375 L 175.964844 59.566406 L 200.96875 59.488281 C 209.300781 59.402344 217.636719 59.375 225.972656 59.234375 C 242.640625 59.039062 259.308594 58.644531 275.980469 58.054688 C 259.308594 57.46875 242.640625 57.074219 225.972656 56.875 C 217.636719 56.734375 209.300781 56.710938 200.96875 56.625 L 175.964844 56.546875 L 150.960938 56.628906 C 142.625 56.710938 134.289062 56.742188 125.957031 56.878906 C 109.285156 57.082031 92.617188 57.472656 75.949219 58.058594 Z M 75.949219 58.058594 " fill-opacity="1" fill-rule="nonzero"/></g></g></g><g clip-path="url(#380e3e8260)"><g mask="url(#2fa3d961a2)"><g transform="matrix(1, 0, 0, 1, 570, 60)"><g clip-path="url(#1fd59b0bcb)"><path fill="#d011d8" d="M 32.578125 71.335938 C 44.042969 71.675781 55.507812 71.824219 66.976562 72.070312 L 101.375 72.492188 C 124.308594 72.769531 147.242188 72.808594 170.175781 72.847656 C 193.105469 72.8125 216.039062 72.773438 238.972656 72.5 L 273.371094 72.078125 C 284.839844 71.824219 296.304688 71.679688 307.773438 71.335938 C 296.304688 70.992188 284.839844 70.847656 273.371094 70.59375 L 238.972656 70.171875 C 216.039062 69.898438 193.105469 69.859375 170.175781 69.824219 C 147.242188 69.863281 124.308594 69.902344 101.375 70.179688 L 66.976562 70.601562 C 55.507812 70.847656 44.042969 70.996094 32.578125 71.335938 Z M 32.578125 71.335938 " fill-opacity="1" fill-rule="nonzero"/><path fill="#d011d8" d="M 68.789062 30.175781 C 82.328125 30.515625 95.867188 30.664062 109.40625 30.914062 L 150.027344 31.335938 C 177.105469 31.609375 204.183594 31.648438 231.261719 31.6875 C 258.34375 31.652344 285.421875 31.613281 312.5 31.339844 L 353.121094 30.917969 C 366.660156 30.667969 380.199219 30.519531 393.738281 30.179688 C 380.199219 29.835938 366.660156 29.6875 353.121094 29.4375 L 312.5 29.015625 C 285.421875 28.742188 258.34375 28.703125 231.261719 28.667969 C 204.183594 28.707031 177.105469 28.746094 150.027344 29.023438 L 109.40625 29.441406 C 95.867188 29.691406 82.328125 29.835938 68.789062 30.175781 Z M 68.789062 30.175781 " fill-opacity="1" fill-rule="nonzero"/><g clip-path="url(#dfb2545723)"><path fill="#d011d8" d="M 101.332031 16.238281 C 117.875 16.578125 134.421875 16.722656 150.964844 16.972656 L 200.597656 17.394531 C 217.144531 17.574219 233.6875 17.542969 250.230469 17.609375 L 299.867188 17.746094 L 349.5 17.613281 C 366.042969 17.539062 382.585938 17.582031 399.132812 17.398438 L 448.765625 16.976562 C 465.308594 16.726562 481.855469 16.578125 498.398438 16.238281 C 481.855469 15.894531 465.308594 15.75 448.765625 15.496094 L 399.132812 15.074219 C 382.585938 14.890625 366.042969 14.933594 349.5 14.863281 L 299.867188 14.730469 L 250.230469 14.867188 C 233.6875 14.933594 217.144531 14.898438 200.597656 15.082031 L 150.964844 15.503906 C 134.421875 15.75 117.875 15.898438 101.332031 16.238281 Z M 101.332031 16.238281 " fill-opacity="1" fill-rule="nonzero"/></g><path fill="#d011d8" d="M 50.410156 44.117188 C 71.285156 44.699219 92.15625 45.09375 113.027344 45.292969 C 123.464844 45.429688 133.902344 45.460938 144.339844 45.542969 L 175.648438 45.625 L 206.957031 45.546875 C 217.394531 45.460938 227.828125 45.4375 238.265625 45.296875 C 259.136719 45.097656 280.011719 44.703125 300.882812 44.117188 C 280.011719 43.527344 259.136719 43.132812 238.265625 42.9375 C 227.828125 42.796875 217.394531 42.769531 206.957031 42.683594 L 175.648438 42.605469 L 144.339844 42.6875 C 133.902344 42.769531 123.464844 42.800781 113.027344 42.941406 C 92.15625 43.140625 71.285156 43.535156 50.410156 44.117188 Z M 50.410156 44.117188 " fill-opacity="1" fill-rule="nonzero"/><path fill="#d011d8" d="M 45.59375 84.46875 C 58.132812 85.097656 70.675781 85.421875 83.214844 85.644531 C 89.488281 85.785156 95.757812 85.816406 102.027344 85.898438 L 120.839844 85.980469 L 139.648438 85.902344 C 145.917969 85.816406 152.191406 85.789062 158.460938 85.648438 C 171 85.425781 183.542969 85.097656 196.082031 84.46875 C 183.542969 83.839844 171 83.511719 158.460938 83.289062 C 152.1875 83.148438 145.917969 83.121094 139.648438 83.039062 L 120.839844 82.957031 L 102.027344 83.042969 C 95.757812 83.125 89.484375 83.15625 83.214844 83.292969 C 70.675781 83.519531 58.132812 83.84375 45.59375 84.46875 Z M 45.59375 84.46875 " fill-opacity="1" fill-rule="nonzero"/><g clip-path="url(#1f80265045)"><path fill="#d011d8" d="M 45.59375 110.742188 C 53.042969 111.367188 60.496094 111.695312 67.945312 111.917969 C 71.671875 112.054688 75.398438 112.085938 79.121094 112.167969 L 90.296875 112.253906 L 101.472656 112.171875 C 105.199219 112.085938 108.925781 112.0625 112.648438 111.921875 C 120.101562 111.699219 127.550781 111.371094 135.003906 110.742188 C 127.550781 110.113281 120.101562 109.785156 112.648438 109.5625 C 108.921875 109.421875 105.199219 109.394531 101.472656 109.308594 L 90.296875 109.230469 L 79.121094 109.316406 C 75.394531 109.398438 71.671875 109.429688 67.945312 109.566406 C 60.496094 109.789062 53.042969 110.117188 45.59375 110.742188 Z M 45.59375 110.742188 " fill-opacity="1" fill-rule="nonzero"/></g><g clip-path="url(#ef618862fd)"><path fill="#d011d8" d="M 161.328125 2.296875 C 168.78125 2.921875 176.230469 3.25 183.683594 3.472656 C 187.40625 3.609375 191.132812 3.640625 194.859375 3.722656 L 206.035156 3.808594 L 217.210938 3.726562 C 220.9375 3.644531 224.660156 3.617188 228.386719 3.476562 C 235.835938 3.253906 243.289062 2.925781 250.738281 2.296875 C 243.289062 1.667969 235.835938 1.339844 228.386719 1.117188 C 224.660156 0.976562 220.933594 0.949219 217.210938 0.863281 L 206.035156 0.785156 L 194.859375 0.867188 C 191.132812 0.949219 187.40625 0.980469 183.683594 1.121094 C 176.230469 1.34375 168.78125 1.671875 161.328125 2.296875 Z M 161.328125 2.296875 " fill-opacity="1" fill-rule="nonzero"/></g><g clip-path="url(#c64381336c)"><path fill="#d011d8" d="M 0.386719 97.605469 C 14.792969 97.945312 29.203125 98.09375 43.609375 98.34375 L 86.832031 98.765625 C 115.648438 99.039062 144.464844 99.078125 173.28125 99.117188 C 202.09375 99.082031 230.910156 99.042969 259.726562 98.769531 L 302.949219 98.347656 C 317.359375 98.097656 331.765625 97.949219 346.171875 97.609375 C 331.765625 97.265625 317.359375 97.117188 302.949219 96.867188 L 259.726562 96.445312 C 230.910156 96.171875 202.09375 96.128906 173.28125 96.097656 C 144.464844 96.136719 115.648438 96.175781 86.832031 96.449219 L 43.609375 96.871094 C 29.203125 97.117188 14.792969 97.265625 0.386719 97.605469 Z M 0.386719 97.605469 " fill-opacity="1" fill-rule="nonzero"/></g><path fill="#d011d8" d="M 75.632812 58.058594 C 92.300781 58.640625 108.972656 59.035156 125.640625 59.230469 C 133.972656 59.371094 142.308594 59.402344 150.644531 59.484375 L 175.648438 59.566406 L 200.652344 59.488281 C 208.988281 59.402344 217.320312 59.375 225.65625 59.234375 C 242.324219 59.039062 258.996094 58.644531 275.664062 58.054688 C 258.996094 57.46875 242.324219 57.074219 225.65625 56.875 C 217.320312 56.734375 208.988281 56.710938 200.652344 56.625 L 175.648438 56.546875 L 150.644531 56.628906 C 142.308594 56.710938 133.976562 56.742188 125.640625 56.878906 C 108.972656 57.082031 92.300781 57.472656 75.632812 58.058594 Z M 75.632812 58.058594 " fill-opacity="1" fill-rule="nonzero"/></g></g></g></g><g fill="#ffffff" fill-opacity="1"><g transform="translate(376.884835, 112.045232)"><g><path d="M 4.4375 -14.027344 L 4.4375 0 L 63.921875 0 L 63.921875 -36.753906 L 18.464844 -36.753906 L 18.464844 -45.457031 L 63.921875 -45.457031 L 63.921875 -59.484375 L 4.4375 -59.484375 L 4.4375 -22.726562 L 49.894531 -22.726562 L 49.894531 -14.027344 Z M 4.4375 -14.027344 "/></g></g></g><g fill="#ffffff" fill-opacity="1"><g transform="translate(445.243932, 112.045232)"><g><path d="M 4.4375 -59.484375 L 4.4375 -45.457031 L 27.167969 -45.457031 L 27.167969 0 L 41.195312 0 L 41.195312 -45.457031 L 63.921875 -45.457031 L 63.921875 -59.484375 Z M 4.4375 -59.484375 "/></g></g></g><g fill="#ffffff" fill-opacity="1"><g transform="translate(513.603029, 112.045232)"><g><path d="M 63.921875 -59.484375 L 4.4375 -59.484375 L 4.4375 0 L 18.464844 0 L 18.464844 -11.363281 L 49.894531 -11.363281 L 49.894531 0 L 63.921875 0 Z M 18.464844 -25.390625 L 18.464844 -45.457031 L 49.894531 -45.457031 L 49.894531 -25.390625 Z M 18.464844 -25.390625 "/></g></g></g><g fill="#ffffff" fill-opacity="1"><g transform="translate(581.962126, 112.045232)"><g><path d="M 4.4375 -59.484375 L 4.4375 0 L 18.464844 0 L 18.464844 -11.363281 L 35.601562 -11.363281 L 46.699219 0 L 63.746094 0 L 52.46875 -11.363281 L 63.921875 -11.363281 L 63.921875 -59.484375 Z M 18.464844 -25.390625 L 18.464844 -45.457031 L 49.894531 -45.457031 L 49.894531 -25.390625 Z M 18.464844 -25.390625 "/></g></g></g><g fill="#ffffff" fill-opacity="1"><g transform="translate(92.09052, 238.947042)"><g><path d="M 4.4375 -59.484375 L 4.4375 -45.457031 L 27.167969 -45.457031 L 27.167969 0 L 41.195312 0 L 41.195312 -45.457031 L 63.921875 -45.457031 L 63.921875 -59.484375 Z M 4.4375 -59.484375 "/></g></g></g><g fill="#ffffff" fill-opacity="1"><g transform="translate(160.449617, 238.947042)"><g><path d="M 4.4375 -59.484375 L 4.4375 0 L 18.464844 0 L 18.464844 -11.363281 L 35.601562 -11.363281 L 46.699219 0 L 63.746094 0 L 52.46875 -11.363281 L 63.921875 -11.363281 L 63.921875 -59.484375 Z M 18.464844 -25.390625 L 18.464844 -45.457031 L 49.894531 -45.457031 L 49.894531 -25.390625 Z M 18.464844 -25.390625 "/></g></g></g><g fill="#ffffff" fill-opacity="1"><g transform="translate(228.808714, 238.947042)"><g><path d="M 63.921875 -59.484375 L 4.4375 -59.484375 L 4.4375 0 L 18.464844 0 L 18.464844 -11.363281 L 49.894531 -11.363281 L 49.894531 0 L 63.921875 0 Z M 18.464844 -25.390625 L 18.464844 -45.457031 L 49.894531 -45.457031 L 49.894531 -25.390625 Z M 18.464844 -25.390625 "/></g></g></g><g fill="#ffffff" fill-opacity="1"><g transform="translate(297.167811, 238.947042)"><g><path d="M 49.894531 -59.484375 L 49.894531 -27.433594 L 18.464844 -49.71875 L 18.464844 -59.484375 L 4.4375 -59.484375 L 4.4375 0 L 18.464844 0 L 18.464844 -31.960938 L 49.894531 -9.675781 L 49.894531 0 L 63.300781 0 L 63.921875 0.445312 L 63.921875 -59.484375 Z M 49.894531 -59.484375 "/></g></g></g><g fill="#ffffff" fill-opacity="1"><g transform="translate(365.526908, 238.947042)"><g><path d="M 4.4375 -14.027344 L 4.4375 0 L 63.921875 0 L 63.921875 -36.753906 L 18.464844 -36.753906 L 18.464844 -45.457031 L 63.921875 -45.457031 L 63.921875 -59.484375 L 4.4375 -59.484375 L 4.4375 -22.726562 L 49.894531 -22.726562 L 49.894531 -14.027344 Z M 4.4375 -14.027344 "/></g></g></g><g fill="#ffffff" fill-opacity="1"><g transform="translate(433.886004, 238.947042)"><g><path d="M 4.4375 -59.484375 L 4.4375 0 L 18.464844 0 L 18.464844 -22.726562 L 63.921875 -22.726562 L 63.921875 -36.753906 L 18.464844 -36.753906 L 18.464844 -45.457031 L 63.921875 -45.457031 L 63.921875 -59.484375 Z M 4.4375 -59.484375 "/></g></g></g><g fill="#ffffff" fill-opacity="1"><g transform="translate(502.245101, 238.947042)"><g><path d="M 18.464844 -45.457031 L 49.894531 -45.457031 L 49.894531 -14.027344 L 18.464844 -14.027344 Z M 4.4375 0 L 63.921875 0 L 63.921875 -59.484375 L 4.4375 -59.484375 Z M 4.4375 0 "/></g></g></g><g fill="#ffffff" fill-opacity="1"><g transform="translate(570.604198, 238.947042)"><g><path d="M 4.4375 -59.484375 L 4.4375 0 L 18.464844 0 L 18.464844 -11.363281 L 35.601562 -11.363281 L 46.699219 0 L 63.746094 0 L 52.46875 -11.363281 L 63.921875 -11.363281 L 63.921875 -59.484375 Z M 18.464844 -25.390625 L 18.464844 -45.457031 L 49.894531 -45.457031 L 49.894531 -25.390625 Z M 18.464844 -25.390625 "/></g></g></g><g fill="#ffffff" fill-opacity="1"><g transform="translate(638.963295, 238.947042)"><g><path d="M 86.652344 -59.484375 L 4.4375 -59.484375 L 4.4375 0 L 18.464844 0 L 18.464844 -45.457031 L 38.53125 -45.367188 L 38.53125 0 L 52.558594 0 L 52.558594 -45.367188 L 72.621094 -45.457031 L 72.621094 0 L 86.652344 0 Z M 86.652344 -59.484375 "/></g></g></g><g fill="#ffffff" fill-opacity="1"><g transform="translate(730.049571, 238.947042)"><g><path d="M 63.921875 -45.457031 L 63.921875 -59.484375 L 4.4375 -59.484375 L 4.4375 0 L 63.921875 0 L 63.921875 -14.027344 L 18.464844 -14.027344 L 18.464844 -22.726562 L 63.921875 -22.726562 L 63.921875 -36.753906 L 18.464844 -36.753906 L 18.464844 -45.457031 Z M 63.921875 -45.457031 "/></g></g></g><g fill="#ffffff" fill-opacity="1"><g transform="translate(798.408668, 238.947042)"><g><path d="M 4.4375 -59.484375 L 4.4375 0 L 18.464844 0 L 18.464844 -11.363281 L 35.601562 -11.363281 L 46.699219 0 L 63.746094 0 L 52.46875 -11.363281 L 63.921875 -11.363281 L 63.921875 -59.484375 Z M 18.464844 -25.390625 L 18.464844 -45.457031 L 49.894531 -45.457031 L 49.894531 -25.390625 Z M 18.464844 -25.390625 "/></g></g></g><g fill="#ffffff" fill-opacity="1"><g transform="translate(866.767765, 238.947042)"><g><path d="M 4.4375 -14.027344 L 4.4375 0 L 63.921875 0 L 63.921875 -36.753906 L 18.464844 -36.753906 L 18.464844 -45.457031 L 63.921875 -45.457031 L 63.921875 -59.484375 L 4.4375 -59.484375 L 4.4375 -22.726562 L 49.894531 -22.726562 L 49.894531 -14.027344 Z M 4.4375 -14.027344 "/></g></g></g></svg>